<?xml version="1.0" encoding="UTF-8"?>
<svg width="17px" height="15px" viewBox="0 0 17 15" version="1.1" xmlns="http://www.w3.org/2000/svg" xmlns:xlink="http://www.w3.org/1999/xlink">
    <!-- Generator: Sketch 51.2 (57519) - http://www.bohemiancoding.com/sketch -->
    <title>love</title>
    <desc>Created with Sketch.</desc>
    <defs></defs>
    <g id="Page-1" stroke="none" stroke-width="1" fill="none" fill-rule="evenodd">
        <g id="Desktop-HD" transform="translate(-1039.000000, -409.000000)" fill="#D01345" fill-rule="nonzero">
            <g id="love" transform="translate(1039.000000, 409.000000)">
                <path d="M8.51792542,15 C8.4103729,15 8.30282038,14.9640158 8.19526785,14.9100396 C7.87261029,14.6941345 0.451486254,9.49442054 0.0212761656,4.76250094 C-0.104201777,3.43108629 0.326008312,2.24360837 1.29398101,1.25404344 C2.65631296,-0.113355386 4.41300416,-0.365244642 6.40272582,0.534359845 C7.31692226,0.948177909 8.06978991,1.52392478 8.5,1.88376658 C8.93021009,1.52392478 9.68307774,0.948177909 10.5972742,0.534359845 C12.5869958,-0.365244642 14.3616125,-0.131347475 15.706019,1.25404344 C16.6739917,2.24360837 17.1042018,3.4130942 16.9787238,4.76250094 C16.5485137,9.49442054 9.10946429,14.6941345 8.80473215,14.9100396 C8.73303046,14.9640158 8.62547794,15 8.51792542,15 Z" id="Shape"></path>
            </g>
        </g>
    </g>
</svg>