<?xml version="1.0" encoding="UTF-8"?>
<svg width="17px" height="15px" viewBox="0 0 17 15" version="1.1" xmlns="http://www.w3.org/2000/svg" xmlns:xlink="http://www.w3.org/1999/xlink">
    <!-- Generator: Sketch 51.2 (57519) - http://www.bohemiancoding.com/sketch -->
    <title>love</title>
    <desc>Created with Sketch.</desc>
    <defs></defs>
    <g id="Page-1" stroke="none" stroke-width="1" fill="none" fill-rule="evenodd">
        <g id="Desktop-HD" transform="translate(-465.000000, -255.000000)" fill="#ADADAD" fill-rule="nonzero">
            <g id="love" transform="translate(465.000000, 255.000000)">
                <path d="M8.51792542,15 C8.4103729,15 8.30282038,14.9640158 8.19526785,14.9100396 C7.87261029,14.6941345 0.451486254,9.49442054 0.0212761656,4.76250094 C-0.104201777,3.43108629 0.326008312,2.24360837 1.29398101,1.25404344 C2.65631296,-0.113355386 4.41300416,-0.365244642 6.40272582,0.534359845 C7.31692226,0.948177909 8.06978991,1.52392478 8.5,1.88376658 C8.93021009,1.52392478 9.68307774,0.948177909 10.5972742,0.534359845 C12.5869958,-0.365244642 14.3616125,-0.131347475 15.706019,1.25404344 C16.6739917,2.24360837 17.1042018,3.4130942 16.9787238,4.76250094 C16.5485137,9.49442054 9.10946429,14.6941345 8.80473215,14.9100396 C8.73303046,14.9640158 8.62547794,15 8.51792542,15 Z M4.21582453,1.11010672 C3.49880772,1.11010672 2.76386548,1.36199597 2.10062493,2.02770329 C1.36568269,2.78337106 1.04302513,3.62899928 1.13265223,4.63655631 C1.29398101,6.36379692 2.65631296,8.5048556 5.09417013,10.8618194 C6.51027834,12.2292182 7.90846113,13.3087436 8.51792542,13.7585458 C9.91610821,12.7329967 15.5626156,8.36091888 15.9031986,4.63655631 C15.9928257,3.62899928 15.6880936,2.76537897 14.9352259,2.02770329 C13.913477,1.00215418 12.6228467,0.840225371 11.0633351,1.54191687 C9.82648111,2.09967165 8.91228467,3.01726823 8.89435925,3.01726823 C8.6792542,3.23317331 8.33867122,3.23317331 8.10564075,3.01726823 C8.01601365,2.92730778 6.16969535,1.11010672 4.21582453,1.11010672 Z" id="Shape"></path>
            </g>
        </g>
    </g>
</svg>