<?xml version="1.0" encoding="UTF-8"?>
<svg width="12px" height="12px" viewBox="0 0 12 12" version="1.1" xmlns="http://www.w3.org/2000/svg" xmlns:xlink="http://www.w3.org/1999/xlink">
    <!-- Generator: Sketch 51.2 (57519) - http://www.bohemiancoding.com/sketch -->
    <title>cross</title>
    <desc>Created with Sketch.</desc>
    <defs></defs>
    <g id="Page-1" stroke="none" stroke-width="1" fill="none" fill-rule="evenodd">
        <g id="Desktop-HD" transform="translate(-1383.000000, -193.000000)" fill="#2B2B2B" fill-rule="nonzero">
            <g id="cross" transform="translate(1383.000000, 193.000000)">
                <path d="M7.00437227,6 L11.7863835,10.7820112 C12.0712055,11.0668332 12.0712055,11.5165522 11.7863835,11.7863835 C11.5015615,12.0712055 11.0518426,12.0712055 10.7820112,11.7863835 L6,7.00437227 L1.21798876,11.7863835 C0.933166771,12.0712055 0.483447845,12.0712055 0.21361649,11.7863835 C-0.0712054966,11.5015615 -0.0712054966,11.0518426 0.21361649,10.7820112 L4.99562773,6 L0.21361649,1.21798876 C-0.0712054966,0.933166771 -0.0712054966,0.483447845 0.21361649,0.21361649 C0.498438476,-0.0712054966 0.948157402,-0.0712054966 1.21798876,0.21361649 L6,4.99562773 L10.7820112,0.21361649 C11.0668332,-0.0712054966 11.5165522,-0.0712054966 11.7863835,0.21361649 C12.0712055,0.498438476 12.0712055,0.948157402 11.7863835,1.21798876 L7.00437227,6 Z" id="Shape"></path>
            </g>
        </g>
    </g>
</svg>